<svg xmlns="http://www.w3.org/2000/svg" xmlns:xlink="http://www.w3.org/1999/xlink" width="820" height="300.754" viewBox="0 0 820 300.754">
  <defs>
    <clipPath id="clip-path">
      <path id="Trazado_801433" data-name="Trazado 801433" d="M147.63,97.87A49.77,49.77,0,1,1,97.861,48.1a49.77,49.77,0,0,1,49.77,49.77" transform="translate(-48.091 -48.1)" fill="#12263f"/>
    </clipPath>
    <clipPath id="clip-path-2">
      <path id="Trazado_801434" data-name="Trazado 801434" d="M604.64,103.684A55.583,55.583,0,1,1,549.057,48.1a55.583,55.583,0,0,1,55.583,55.584" transform="translate(-493.473 -48.1)" fill="#f6f6f6"/>
    </clipPath>
    <clipPath id="clip-path-3">
      <path id="Trazado_801467" data-name="Trazado 801467" d="M1496.16,104.062A55.961,55.961,0,1,1,1440.2,48.1a55.962,55.962,0,0,1,55.961,55.962" transform="translate(-1384.237 -48.1)" fill="#12263f"/>
    </clipPath>
    <clipPath id="clip-path-4">
      <path id="Trazado_801474" data-name="Trazado 801474" d="M1941.542,104.062A55.961,55.961,0,1,1,1885.58,48.1a55.962,55.962,0,0,1,55.962,55.962" transform="translate(-1829.619 -48.1)" fill="#12263f"/>
    </clipPath>
  </defs>
  <g id="Grupo_1101618" data-name="Grupo 1101618" transform="translate(-390 -8223.784)">
    <g id="Grupo_1065510" data-name="Grupo 1065510" transform="translate(105 4063.014)">
      <text id="Recoger" transform="translate(356.143 4457.524)" fill="#12263f" font-size="16" font-family="Roboto-Regular, Roboto"><tspan x="-29.348" y="0">Recoger</tspan></text>
      <text id="Evaluar" transform="translate(502.113 4457.524)" fill="#12263f" font-size="16" font-family="Roboto-Regular, Roboto"><tspan x="0" y="0">Evaluar</tspan></text>
      <text id="Tratar" transform="translate(694.235 4457.524)" fill="#12263f" font-size="16" font-family="Roboto-Regular, Roboto"><tspan x="-21.055" y="0">Tratar</tspan></text>
      <text id="Analizar" transform="translate(860.482 4457.524)" fill="#12263f" font-size="16" font-family="Roboto-Regular, Roboto"><tspan x="-28.891" y="0">Analizar</tspan></text>
      <text id="Difundir" transform="translate(1030.699 4457.524)" fill="#12263f" font-size="16" font-family="Roboto-Regular, Roboto"><tspan x="-27.949" y="0">Difundir</tspan></text>
      <path id="Trazado_801270" data-name="Trazado 801270" d="M74.113,0A74.171,74.171,0,0,0,.022,74.091H148.2A74.171,74.171,0,0,0,74.113,0" transform="translate(284.986 4225.365)" fill="#53bced"/>
      <path id="Trazado_801271" data-name="Trazado 801271" d="M519.495,0A74.171,74.171,0,0,0,445.4,74.091H593.586A74.171,74.171,0,0,0,519.495,0" transform="translate(7.557 4225.365)" fill="#0d66bf"/>
      <path id="Trazado_801272" data-name="Trazado 801272" d="M964.877,0a74.171,74.171,0,0,0-74.091,74.091h148.182A74.172,74.172,0,0,0,964.877,0" transform="translate(-269.873 4225.365)" fill="#ff725d"/>
      <path id="Trazado_801273" data-name="Trazado 801273" d="M1410.259,0a74.171,74.171,0,0,0-74.091,74.091H1484.35A74.171,74.171,0,0,0,1410.259,0" transform="translate(-547.302 4225.365)" fill="#1969d5"/>
      <path id="Trazado_801274" data-name="Trazado 801274" d="M1855.641,0a74.172,74.172,0,0,0-74.091,74.091h148.182A74.171,74.171,0,0,0,1855.641,0" transform="translate(-824.732 4225.365)" fill="#59bee2"/>
      <g id="Grupo_1065290" data-name="Grupo 1065290" transform="translate(285 4299.465)">
        <path id="Trazado_801275" data-name="Trazado 801275" d="M183.644,462.675a13.182,13.182,0,1,0,13.182,13.182,13.182,13.182,0,0,0-13.182-13.182" transform="translate(-109.547 -365.667)" fill="#12263f"/>
        <g id="Grupo_1065289" data-name="Grupo 1065289" transform="translate(0 0)">
          <path id="Trazado_801276" data-name="Trazado 801276" d="M388.213,196.5q0,1.738-.081,3.456l1.747.082q.083-1.758.083-3.538Z" transform="translate(-241.768 -196.499)" fill="#12263f"/>
          <path id="Trazado_801277" data-name="Trazado 801277" d="M61.086,336.8c1.7,1.613,3.49,3.165,5.33,4.61l1.081-1.375c-1.8-1.412-3.549-2.926-5.206-4.5Z" transform="translate(-38.051 -283.102)" fill="#12263f"/>
          <path id="Trazado_801278" data-name="Trazado 801278" d="M82.709,354.362c1.907,1.357,3.9,2.639,5.93,3.809l.874-1.514c-1.981-1.143-3.929-2.394-5.79-3.719Z" transform="translate(-51.52 -293.945)" fill="#12263f"/>
          <path id="Trazado_801279" data-name="Trazado 801279" d="M106.653,368.728c2.077,1.071,4.234,2.055,6.413,2.924l.649-1.623c-2.127-.849-4.233-1.81-6.261-2.855Z" transform="translate(-66.434 -302.813)" fill="#12263f"/>
          <path id="Trazado_801280" data-name="Trazado 801280" d="M132.434,379.582c2.212.763,4.489,1.427,6.767,1.975l.408-1.7c-2.224-.534-4.446-1.183-6.6-1.928Z" transform="translate(-82.493 -309.512)" fill="#12263f"/>
          <path id="Trazado_801281" data-name="Trazado 801281" d="M26.449,293.579c1.174,2.021,2.461,4.013,3.825,5.919L31.7,298.48c-1.332-1.861-2.588-3.805-3.734-5.779Z" transform="translate(-16.475 -256.423)" fill="#12263f"/>
          <path id="Trazado_801282" data-name="Trazado 801282" d="M2.657,215.143l-1.74.169c.225,2.336.565,4.681,1.009,6.973l1.716-.332c-.433-2.238-.764-4.529-.985-6.81" transform="translate(-0.571 -208.113)" fill="#12263f"/>
          <path id="Trazado_801283" data-name="Trazado 801283" d="M42.205,316.4c1.45,1.835,3.005,3.624,4.625,5.317l1.263-1.209c-1.581-1.654-3.1-3.4-4.516-5.193Z" transform="translate(-26.29 -270.51)" fill="#12263f"/>
          <path id="Trazado_801284" data-name="Trazado 801284" d="M7.283,242.113l-1.7.415c.557,2.278,1.229,4.553,2,6.759l1.651-.575c-.75-2.154-1.406-4.374-1.949-6.6" transform="translate(-3.478 -224.912)" fill="#12263f"/>
          <path id="Trazado_801285" data-name="Trazado 801285" d="M14.153,268.788c.872,2.168,1.862,4.322,2.942,6.4l1.552-.8c-1.054-2.033-2.02-4.136-2.872-6.251Z" transform="translate(-8.816 -241.122)" fill="#12263f"/>
          <path id="Trazado_801286" data-name="Trazado 801286" d="M166.659,385.928c-2.284-.212-4.576-.536-6.811-.963l-.328,1.717c2.289.437,4.637.768,6.977.987Z" transform="translate(-99.365 -313.895)" fill="#12263f"/>
          <path id="Trazado_801287" data-name="Trazado 801287" d="M352.795,298.224l1.424,1.016c1.362-1.91,2.645-3.9,3.815-5.926l-1.513-.876c-1.143,1.975-2.4,3.921-3.726,5.786" transform="translate(-219.757 -256.26)" fill="#12263f"/>
          <path id="Trazado_801288" data-name="Trazado 801288" d="M367.059,274.085l1.554.8c1.074-2.079,2.061-4.237,2.932-6.41l-1.623-.65c-.851,2.122-1.814,4.228-2.863,6.258" transform="translate(-228.642 -240.93)" fill="#12263f"/>
          <path id="Trazado_801289" data-name="Trazado 801289" d="M335.362,320.29l1.265,1.207c1.618-1.7,3.171-3.489,4.617-5.326l-1.374-1.081c-1.412,1.793-2.929,3.542-4.508,5.2" transform="translate(-208.898 -270.37)" fill="#12263f"/>
          <path id="Trazado_801290" data-name="Trazado 801290" d="M214.908,385.874l.166,1.741c2.334-.224,4.681-.56,6.975-1l-.331-1.718c-2.239.432-4.53.76-6.81.977" transform="translate(-133.867 -313.853)" fill="#12263f"/>
          <path id="Trazado_801291" data-name="Trazado 801291" d="M384.911,221.582l1.718.33c.439-2.295.774-4.641.994-6.976l-1.74-.164c-.216,2.279-.543,4.57-.972,6.81" transform="translate(-239.762 -207.881)" fill="#12263f"/>
          <path id="Trazado_801292" data-name="Trazado 801292" d="M377.845,248.353l1.653.572c.765-2.209,1.432-4.485,1.983-6.764l-1.7-.411c-.538,2.225-1.19,4.447-1.937,6.6" transform="translate(-235.361 -224.685)" fill="#12263f"/>
          <path id="Trazado_801293" data-name="Trazado 801293" d="M315.125,339.841l1.082,1.373c1.838-1.448,3.629-3,5.323-4.617l-1.207-1.265c-1.654,1.578-3.4,3.1-5.2,4.51" transform="translate(-196.292 -282.978)" fill="#12263f"/>
          <path id="Trazado_801294" data-name="Trazado 801294" d="M267.913,369.89l.65,1.622c2.172-.871,4.327-1.858,6.407-2.933l-.8-1.554c-2.031,1.05-4.135,2.014-6.255,2.865" transform="translate(-166.884 -302.72)" fill="#12263f"/>
          <path id="Trazado_801295" data-name="Trazado 801295" d="M241.882,379.746l.411,1.7c2.269-.55,4.544-1.219,6.763-1.989l-.574-1.651c-2.166.751-4.386,1.4-6.6,1.939" transform="translate(-150.669 -309.436)" fill="#12263f"/>
          <path id="Trazado_801296" data-name="Trazado 801296" d="M292.495,356.493l.875,1.513c2.027-1.173,4.019-2.458,5.924-3.817l-1.016-1.422c-1.859,1.327-3.805,2.581-5.783,3.727" transform="translate(-182.196 -293.838)" fill="#12263f"/>
          <path id="Trazado_801297" data-name="Trazado 801297" d="M1.748,196.5H0q0,1.778.083,3.538l1.746-.082q-.081-1.717-.081-3.456" transform="translate(0 -196.499)" fill="#12263f"/>
          <path id="Trazado_801298" data-name="Trazado 801298" d="M189.915,392.591h1.748V389.95c.91-.01,1.82-.023,2.722-.067l-.084-1.745q-1.7.08-3.414.082c-1.158.012-2.319-.024-3.467-.077l-.082,1.745c.855.041,1.717.048,2.577.058Z" transform="translate(-116.693 -315.871)" fill="#12263f"/>
        </g>
        <rect id="Rectángulo_374190" data-name="Rectángulo 374190" width="1.748" height="5.761" transform="translate(73.222 88.239)" fill="#12263f"/>
        <rect id="Rectángulo_374191" data-name="Rectángulo 374191" width="1.748" height="5.76" transform="translate(73.222 79.599)" fill="#12263f"/>
        <rect id="Rectángulo_374192" data-name="Rectángulo 374192" width="1.748" height="3.496" transform="translate(73.222 96.877)" fill="#12263f"/>
      </g>
      <g id="Grupo_1065291" data-name="Grupo 1065291" transform="translate(452.952 4299.465)">
        <path id="Trazado_801300" data-name="Trazado 801300" d="M833.594,196.5q0,1.738-.081,3.456l1.747.082q.083-1.758.083-3.538Z" transform="translate(-687.149 -196.499)" fill="#12263f"/>
        <path id="Trazado_801301" data-name="Trazado 801301" d="M577.818,379.582c2.211.763,4.488,1.427,6.767,1.975l.408-1.7c-2.223-.534-4.445-1.183-6.6-1.928Z" transform="translate(-527.876 -309.512)" fill="#12263f"/>
        <path id="Trazado_801302" data-name="Trazado 801302" d="M552.036,368.728c2.077,1.071,4.234,2.055,6.413,2.924l.649-1.623c-2.127-.849-4.233-1.81-6.261-2.855Z" transform="translate(-511.816 -302.813)" fill="#12263f"/>
        <path id="Trazado_801303" data-name="Trazado 801303" d="M612.04,385.928c-2.284-.212-4.576-.536-6.811-.963l-.328,1.717c2.289.437,4.637.768,6.977.987Z" transform="translate(-544.746 -313.895)" fill="#12263f"/>
        <path id="Trazado_801304" data-name="Trazado 801304" d="M528.095,354.364c1.907,1.357,3.9,2.639,5.93,3.809l.874-1.514c-1.98-1.143-3.928-2.394-5.79-3.719Z" transform="translate(-496.903 -293.947)" fill="#12263f"/>
        <path id="Trazado_801305" data-name="Trazado 801305" d="M448.036,215.143l-1.74.169c.225,2.336.565,4.681,1.009,6.973l1.716-.332c-.433-2.238-.764-4.529-.985-6.81" transform="translate(-445.951 -208.113)" fill="#12263f"/>
        <path id="Trazado_801306" data-name="Trazado 801306" d="M506.467,336.8c1.7,1.613,3.49,3.165,5.33,4.61l1.08-1.374c-1.8-1.412-3.548-2.926-5.205-4.5Z" transform="translate(-483.431 -283.104)" fill="#12263f"/>
        <path id="Trazado_801307" data-name="Trazado 801307" d="M471.833,293.58c1.174,2.021,2.461,4.013,3.824,5.919l1.422-1.018c-1.332-1.861-2.588-3.805-3.734-5.779Z" transform="translate(-461.858 -256.425)" fill="#12263f"/>
        <path id="Trazado_801308" data-name="Trazado 801308" d="M452.667,242.113l-1.7.415c.557,2.278,1.229,4.553,2,6.759l1.651-.575c-.75-2.154-1.406-4.374-1.949-6.6" transform="translate(-448.861 -224.912)" fill="#12263f"/>
        <path id="Trazado_801309" data-name="Trazado 801309" d="M487.59,316.4c1.448,1.833,3,3.623,4.624,5.318l1.264-1.209c-1.583-1.655-3.1-3.4-4.515-5.191Z" transform="translate(-471.673 -270.513)" fill="#12263f"/>
        <path id="Trazado_801310" data-name="Trazado 801310" d="M459.538,268.788c.873,2.168,1.862,4.322,2.943,6.4l1.552-.8c-1.054-2.033-2.021-4.136-2.872-6.251Z" transform="translate(-454.199 -241.122)" fill="#12263f"/>
        <path id="Trazado_801311" data-name="Trazado 801311" d="M660.289,385.874l.166,1.741c2.334-.224,4.68-.56,6.975-1L667.1,384.9c-2.239.432-4.53.76-6.81.977" transform="translate(-579.247 -313.853)" fill="#12263f"/>
        <path id="Trazado_801312" data-name="Trazado 801312" d="M812.442,274.085l1.554.8c1.074-2.079,2.061-4.237,2.931-6.41l-1.623-.65c-.85,2.122-1.813,4.228-2.862,6.258" transform="translate(-674.024 -240.93)" fill="#12263f"/>
        <path id="Trazado_801313" data-name="Trazado 801313" d="M798.179,298.224l1.424,1.016c1.361-1.91,2.645-3.9,3.815-5.926l-1.513-.876c-1.143,1.975-2.4,3.921-3.726,5.786" transform="translate(-665.139 -256.26)" fill="#12263f"/>
        <path id="Trazado_801314" data-name="Trazado 801314" d="M830.294,221.582l1.718.33c.439-2.295.774-4.641.994-6.976l-1.74-.164c-.216,2.279-.543,4.57-.972,6.81" transform="translate(-685.144 -207.881)" fill="#12263f"/>
        <path id="Trazado_801315" data-name="Trazado 801315" d="M823.229,248.353l1.653.572c.765-2.209,1.432-4.485,1.983-6.764l-1.7-.411c-.538,2.225-1.19,4.447-1.937,6.6" transform="translate(-680.743 -224.685)" fill="#12263f"/>
        <path id="Trazado_801316" data-name="Trazado 801316" d="M780.744,320.29l1.265,1.207c1.618-1.7,3.171-3.489,4.617-5.326l-1.374-1.081c-1.412,1.793-2.929,3.542-4.508,5.2" transform="translate(-654.279 -270.37)" fill="#12263f"/>
        <path id="Trazado_801317" data-name="Trazado 801317" d="M737.876,356.489l.876,1.513c2.027-1.173,4.019-2.458,5.924-3.817l-1.016-1.422c-1.859,1.327-3.806,2.581-5.784,3.727" transform="translate(-627.577 -293.836)" fill="#12263f"/>
        <path id="Trazado_801318" data-name="Trazado 801318" d="M713.292,369.891l.652,1.622c2.173-.873,4.329-1.86,6.405-2.934l-.8-1.554c-2.028,1.049-4.133,2.013-6.256,2.866" transform="translate(-612.263 -302.72)" fill="#12263f"/>
        <path id="Trazado_801319" data-name="Trazado 801319" d="M687.266,379.746l.411,1.7c2.269-.55,4.544-1.219,6.763-1.989l-.574-1.651c-2.166.751-4.386,1.4-6.6,1.939" transform="translate(-596.052 -309.436)" fill="#12263f"/>
        <path id="Trazado_801320" data-name="Trazado 801320" d="M760.51,339.841l1.082,1.373c1.838-1.448,3.629-3,5.323-4.617l-1.207-1.265c-1.654,1.578-3.4,3.1-5.2,4.51" transform="translate(-641.676 -282.978)" fill="#12263f"/>
        <path id="Trazado_801321" data-name="Trazado 801321" d="M447.129,196.5h-1.748q0,1.778.083,3.538l1.747-.082q-.081-1.717-.081-3.456" transform="translate(-445.381 -196.499)" fill="#12263f"/>
        <path id="Trazado_801322" data-name="Trazado 801322" d="M635.3,392.591h1.748V389.95c.91-.01,1.82-.023,2.721-.067l-.084-1.745q-1.7.08-3.414.082c-1.169.012-2.319-.024-3.467-.077l-.082,1.745c.854.041,1.715.048,2.577.058Z" transform="translate(-562.076 -315.871)" fill="#12263f"/>
        <rect id="Rectángulo_374193" data-name="Rectángulo 374193" width="1.748" height="5.761" transform="translate(73.223 88.239)" fill="#12263f"/>
        <rect id="Rectángulo_374194" data-name="Rectángulo 374194" width="1.748" height="5.76" transform="translate(73.223 79.599)" fill="#12263f"/>
        <rect id="Rectángulo_374195" data-name="Rectángulo 374195" width="1.748" height="3.496" transform="translate(73.223 96.877)" fill="#12263f"/>
      </g>
      <g id="Grupo_1065292" data-name="Grupo 1065292" transform="translate(620.913 4299.465)">
        <path id="Trazado_801300-2" data-name="Trazado 801300" d="M833.594,196.5q0,1.738-.081,3.456l1.747.082q.083-1.758.083-3.538Z" transform="translate(-687.149 -196.499)" fill="#12263f"/>
        <path id="Trazado_801301-2" data-name="Trazado 801301" d="M577.818,379.582c2.211.763,4.488,1.427,6.767,1.975l.408-1.7c-2.223-.534-4.445-1.183-6.6-1.928Z" transform="translate(-527.876 -309.512)" fill="#12263f"/>
        <path id="Trazado_801302-2" data-name="Trazado 801302" d="M552.036,368.728c2.077,1.071,4.234,2.055,6.413,2.924l.649-1.623c-2.127-.849-4.233-1.81-6.261-2.855Z" transform="translate(-511.816 -302.813)" fill="#12263f"/>
        <path id="Trazado_801303-2" data-name="Trazado 801303" d="M612.04,385.928c-2.284-.212-4.576-.536-6.811-.963l-.328,1.717c2.289.437,4.637.768,6.977.987Z" transform="translate(-544.746 -313.895)" fill="#12263f"/>
        <path id="Trazado_801304-2" data-name="Trazado 801304" d="M528.095,354.364c1.907,1.357,3.9,2.639,5.93,3.809l.874-1.514c-1.98-1.143-3.928-2.394-5.79-3.719Z" transform="translate(-496.903 -293.947)" fill="#12263f"/>
        <path id="Trazado_801305-2" data-name="Trazado 801305" d="M448.036,215.143l-1.74.169c.225,2.336.565,4.681,1.009,6.973l1.716-.332c-.433-2.238-.764-4.529-.985-6.81" transform="translate(-445.951 -208.113)" fill="#12263f"/>
        <path id="Trazado_801306-2" data-name="Trazado 801306" d="M506.467,336.8c1.7,1.613,3.49,3.165,5.33,4.61l1.08-1.374c-1.8-1.412-3.548-2.926-5.205-4.5Z" transform="translate(-483.431 -283.104)" fill="#12263f"/>
        <path id="Trazado_801307-2" data-name="Trazado 801307" d="M471.833,293.58c1.174,2.021,2.461,4.013,3.824,5.919l1.422-1.018c-1.332-1.861-2.588-3.805-3.734-5.779Z" transform="translate(-461.858 -256.425)" fill="#12263f"/>
        <path id="Trazado_801308-2" data-name="Trazado 801308" d="M452.667,242.113l-1.7.415c.557,2.278,1.229,4.553,2,6.759l1.651-.575c-.75-2.154-1.406-4.374-1.949-6.6" transform="translate(-448.861 -224.912)" fill="#12263f"/>
        <path id="Trazado_801309-2" data-name="Trazado 801309" d="M487.59,316.4c1.448,1.833,3,3.623,4.624,5.318l1.264-1.209c-1.583-1.655-3.1-3.4-4.515-5.191Z" transform="translate(-471.673 -270.513)" fill="#12263f"/>
        <path id="Trazado_801310-2" data-name="Trazado 801310" d="M459.538,268.788c.873,2.168,1.862,4.322,2.943,6.4l1.552-.8c-1.054-2.033-2.021-4.136-2.872-6.251Z" transform="translate(-454.199 -241.122)" fill="#12263f"/>
        <path id="Trazado_801311-2" data-name="Trazado 801311" d="M660.289,385.874l.166,1.741c2.334-.224,4.68-.56,6.975-1L667.1,384.9c-2.239.432-4.53.76-6.81.977" transform="translate(-579.247 -313.853)" fill="#12263f"/>
        <path id="Trazado_801312-2" data-name="Trazado 801312" d="M812.442,274.085l1.554.8c1.074-2.079,2.061-4.237,2.931-6.41l-1.623-.65c-.85,2.122-1.813,4.228-2.862,6.258" transform="translate(-674.024 -240.93)" fill="#12263f"/>
        <path id="Trazado_801313-2" data-name="Trazado 801313" d="M798.179,298.224l1.424,1.016c1.361-1.91,2.645-3.9,3.815-5.926l-1.513-.876c-1.143,1.975-2.4,3.921-3.726,5.786" transform="translate(-665.139 -256.26)" fill="#12263f"/>
        <path id="Trazado_801314-2" data-name="Trazado 801314" d="M830.294,221.582l1.718.33c.439-2.295.774-4.641.994-6.976l-1.74-.164c-.216,2.279-.543,4.57-.972,6.81" transform="translate(-685.144 -207.881)" fill="#12263f"/>
        <path id="Trazado_801315-2" data-name="Trazado 801315" d="M823.229,248.353l1.653.572c.765-2.209,1.432-4.485,1.983-6.764l-1.7-.411c-.538,2.225-1.19,4.447-1.937,6.6" transform="translate(-680.743 -224.685)" fill="#12263f"/>
        <path id="Trazado_801316-2" data-name="Trazado 801316" d="M780.744,320.29l1.265,1.207c1.618-1.7,3.171-3.489,4.617-5.326l-1.374-1.081c-1.412,1.793-2.929,3.542-4.508,5.2" transform="translate(-654.279 -270.37)" fill="#12263f"/>
        <path id="Trazado_801317-2" data-name="Trazado 801317" d="M737.876,356.489l.876,1.513c2.027-1.173,4.019-2.458,5.924-3.817l-1.016-1.422c-1.859,1.327-3.806,2.581-5.784,3.727" transform="translate(-627.577 -293.836)" fill="#12263f"/>
        <path id="Trazado_801318-2" data-name="Trazado 801318" d="M713.292,369.891l.652,1.622c2.173-.873,4.329-1.86,6.405-2.934l-.8-1.554c-2.028,1.049-4.133,2.013-6.256,2.866" transform="translate(-612.263 -302.72)" fill="#12263f"/>
        <path id="Trazado_801319-2" data-name="Trazado 801319" d="M687.266,379.746l.411,1.7c2.269-.55,4.544-1.219,6.763-1.989l-.574-1.651c-2.166.751-4.386,1.4-6.6,1.939" transform="translate(-596.052 -309.436)" fill="#12263f"/>
        <path id="Trazado_801320-2" data-name="Trazado 801320" d="M760.51,339.841l1.082,1.373c1.838-1.448,3.629-3,5.323-4.617l-1.207-1.265c-1.654,1.578-3.4,3.1-5.2,4.51" transform="translate(-641.676 -282.978)" fill="#12263f"/>
        <path id="Trazado_801321-2" data-name="Trazado 801321" d="M447.129,196.5h-1.748q0,1.778.083,3.538l1.747-.082q-.081-1.717-.081-3.456" transform="translate(-445.381 -196.499)" fill="#12263f"/>
        <path id="Trazado_801322-2" data-name="Trazado 801322" d="M635.3,392.591h1.748V389.95c.91-.01,1.82-.023,2.721-.067l-.084-1.745q-1.7.08-3.414.082c-1.169.012-2.319-.024-3.467-.077l-.082,1.745c.854.041,1.715.048,2.577.058Z" transform="translate(-562.076 -315.871)" fill="#12263f"/>
        <rect id="Rectángulo_374193-2" data-name="Rectángulo 374193" width="1.748" height="5.761" transform="translate(73.223 88.239)" fill="#12263f"/>
        <rect id="Rectángulo_374194-2" data-name="Rectángulo 374194" width="1.748" height="5.76" transform="translate(73.223 79.599)" fill="#12263f"/>
        <rect id="Rectángulo_374195-2" data-name="Rectángulo 374195" width="1.748" height="3.496" transform="translate(73.223 96.877)" fill="#12263f"/>
      </g>
      <g id="Grupo_1065293" data-name="Grupo 1065293" transform="translate(788.858 4299.465)">
        <path id="Trazado_801300-3" data-name="Trazado 801300" d="M833.594,196.5q0,1.738-.081,3.456l1.747.082q.083-1.758.083-3.538Z" transform="translate(-687.149 -196.499)" fill="#12263f"/>
        <path id="Trazado_801301-3" data-name="Trazado 801301" d="M577.818,379.582c2.211.763,4.488,1.427,6.767,1.975l.408-1.7c-2.223-.534-4.445-1.183-6.6-1.928Z" transform="translate(-527.876 -309.512)" fill="#12263f"/>
        <path id="Trazado_801302-3" data-name="Trazado 801302" d="M552.036,368.728c2.077,1.071,4.234,2.055,6.413,2.924l.649-1.623c-2.127-.849-4.233-1.81-6.261-2.855Z" transform="translate(-511.816 -302.813)" fill="#12263f"/>
        <path id="Trazado_801303-3" data-name="Trazado 801303" d="M612.04,385.928c-2.284-.212-4.576-.536-6.811-.963l-.328,1.717c2.289.437,4.637.768,6.977.987Z" transform="translate(-544.746 -313.895)" fill="#12263f"/>
        <path id="Trazado_801304-3" data-name="Trazado 801304" d="M528.095,354.364c1.907,1.357,3.9,2.639,5.93,3.809l.874-1.514c-1.98-1.143-3.928-2.394-5.79-3.719Z" transform="translate(-496.903 -293.947)" fill="#12263f"/>
        <path id="Trazado_801305-3" data-name="Trazado 801305" d="M448.036,215.143l-1.74.169c.225,2.336.565,4.681,1.009,6.973l1.716-.332c-.433-2.238-.764-4.529-.985-6.81" transform="translate(-445.951 -208.113)" fill="#12263f"/>
        <path id="Trazado_801306-3" data-name="Trazado 801306" d="M506.467,336.8c1.7,1.613,3.49,3.165,5.33,4.61l1.08-1.374c-1.8-1.412-3.548-2.926-5.205-4.5Z" transform="translate(-483.431 -283.104)" fill="#12263f"/>
        <path id="Trazado_801307-3" data-name="Trazado 801307" d="M471.833,293.58c1.174,2.021,2.461,4.013,3.824,5.919l1.422-1.018c-1.332-1.861-2.588-3.805-3.734-5.779Z" transform="translate(-461.858 -256.425)" fill="#12263f"/>
        <path id="Trazado_801308-3" data-name="Trazado 801308" d="M452.667,242.113l-1.7.415c.557,2.278,1.229,4.553,2,6.759l1.651-.575c-.75-2.154-1.406-4.374-1.949-6.6" transform="translate(-448.861 -224.912)" fill="#12263f"/>
        <path id="Trazado_801309-3" data-name="Trazado 801309" d="M487.59,316.4c1.448,1.833,3,3.623,4.624,5.318l1.264-1.209c-1.583-1.655-3.1-3.4-4.515-5.191Z" transform="translate(-471.673 -270.513)" fill="#12263f"/>
        <path id="Trazado_801310-3" data-name="Trazado 801310" d="M459.538,268.788c.873,2.168,1.862,4.322,2.943,6.4l1.552-.8c-1.054-2.033-2.021-4.136-2.872-6.251Z" transform="translate(-454.199 -241.122)" fill="#12263f"/>
        <path id="Trazado_801311-3" data-name="Trazado 801311" d="M660.289,385.874l.166,1.741c2.334-.224,4.68-.56,6.975-1L667.1,384.9c-2.239.432-4.53.76-6.81.977" transform="translate(-579.247 -313.853)" fill="#12263f"/>
        <path id="Trazado_801312-3" data-name="Trazado 801312" d="M812.442,274.085l1.554.8c1.074-2.079,2.061-4.237,2.931-6.41l-1.623-.65c-.85,2.122-1.813,4.228-2.862,6.258" transform="translate(-674.024 -240.93)" fill="#12263f"/>
        <path id="Trazado_801313-3" data-name="Trazado 801313" d="M798.179,298.224l1.424,1.016c1.361-1.91,2.645-3.9,3.815-5.926l-1.513-.876c-1.143,1.975-2.4,3.921-3.726,5.786" transform="translate(-665.139 -256.26)" fill="#12263f"/>
        <path id="Trazado_801314-3" data-name="Trazado 801314" d="M830.294,221.582l1.718.33c.439-2.295.774-4.641.994-6.976l-1.74-.164c-.216,2.279-.543,4.57-.972,6.81" transform="translate(-685.144 -207.881)" fill="#12263f"/>
        <path id="Trazado_801315-3" data-name="Trazado 801315" d="M823.229,248.353l1.653.572c.765-2.209,1.432-4.485,1.983-6.764l-1.7-.411c-.538,2.225-1.19,4.447-1.937,6.6" transform="translate(-680.743 -224.685)" fill="#12263f"/>
        <path id="Trazado_801316-3" data-name="Trazado 801316" d="M780.744,320.29l1.265,1.207c1.618-1.7,3.171-3.489,4.617-5.326l-1.374-1.081c-1.412,1.793-2.929,3.542-4.508,5.2" transform="translate(-654.279 -270.37)" fill="#12263f"/>
        <path id="Trazado_801317-3" data-name="Trazado 801317" d="M737.876,356.489l.876,1.513c2.027-1.173,4.019-2.458,5.924-3.817l-1.016-1.422c-1.859,1.327-3.806,2.581-5.784,3.727" transform="translate(-627.577 -293.836)" fill="#12263f"/>
        <path id="Trazado_801318-3" data-name="Trazado 801318" d="M713.292,369.891l.652,1.622c2.173-.873,4.329-1.86,6.405-2.934l-.8-1.554c-2.028,1.049-4.133,2.013-6.256,2.866" transform="translate(-612.263 -302.72)" fill="#12263f"/>
        <path id="Trazado_801319-3" data-name="Trazado 801319" d="M687.266,379.746l.411,1.7c2.269-.55,4.544-1.219,6.763-1.989l-.574-1.651c-2.166.751-4.386,1.4-6.6,1.939" transform="translate(-596.052 -309.436)" fill="#12263f"/>
        <path id="Trazado_801320-3" data-name="Trazado 801320" d="M760.51,339.841l1.082,1.373c1.838-1.448,3.629-3,5.323-4.617l-1.207-1.265c-1.654,1.578-3.4,3.1-5.2,4.51" transform="translate(-641.676 -282.978)" fill="#12263f"/>
        <path id="Trazado_801321-3" data-name="Trazado 801321" d="M447.129,196.5h-1.748q0,1.778.083,3.538l1.747-.082q-.081-1.717-.081-3.456" transform="translate(-445.381 -196.499)" fill="#12263f"/>
        <path id="Trazado_801322-3" data-name="Trazado 801322" d="M635.3,392.591h1.748V389.95c.91-.01,1.82-.023,2.721-.067l-.084-1.745q-1.7.08-3.414.082c-1.169.012-2.319-.024-3.467-.077l-.082,1.745c.854.041,1.715.048,2.577.058Z" transform="translate(-562.076 -315.871)" fill="#12263f"/>
        <rect id="Rectángulo_374193-3" data-name="Rectángulo 374193" width="1.748" height="5.761" transform="translate(73.223 88.239)" fill="#12263f"/>
        <rect id="Rectángulo_374194-3" data-name="Rectángulo 374194" width="1.748" height="5.76" transform="translate(73.223 79.599)" fill="#12263f"/>
        <rect id="Rectángulo_374195-3" data-name="Rectángulo 374195" width="1.748" height="3.496" transform="translate(73.223 96.877)" fill="#12263f"/>
      </g>
      <g id="Grupo_1065294" data-name="Grupo 1065294" transform="translate(956.807 4299.465)">
        <path id="Trazado_801300-4" data-name="Trazado 801300" d="M833.594,196.5q0,1.738-.081,3.456l1.747.082q.083-1.758.083-3.538Z" transform="translate(-687.149 -196.499)" fill="#12263f"/>
        <path id="Trazado_801301-4" data-name="Trazado 801301" d="M577.818,379.582c2.211.763,4.488,1.427,6.767,1.975l.408-1.7c-2.223-.534-4.445-1.183-6.6-1.928Z" transform="translate(-527.876 -309.512)" fill="#12263f"/>
        <path id="Trazado_801302-4" data-name="Trazado 801302" d="M552.036,368.728c2.077,1.071,4.234,2.055,6.413,2.924l.649-1.623c-2.127-.849-4.233-1.81-6.261-2.855Z" transform="translate(-511.816 -302.813)" fill="#12263f"/>
        <path id="Trazado_801303-4" data-name="Trazado 801303" d="M612.04,385.928c-2.284-.212-4.576-.536-6.811-.963l-.328,1.717c2.289.437,4.637.768,6.977.987Z" transform="translate(-544.746 -313.895)" fill="#12263f"/>
        <path id="Trazado_801304-4" data-name="Trazado 801304" d="M528.095,354.364c1.907,1.357,3.9,2.639,5.93,3.809l.874-1.514c-1.98-1.143-3.928-2.394-5.79-3.719Z" transform="translate(-496.903 -293.947)" fill="#12263f"/>
        <path id="Trazado_801305-4" data-name="Trazado 801305" d="M448.036,215.143l-1.74.169c.225,2.336.565,4.681,1.009,6.973l1.716-.332c-.433-2.238-.764-4.529-.985-6.81" transform="translate(-445.951 -208.113)" fill="#12263f"/>
        <path id="Trazado_801306-4" data-name="Trazado 801306" d="M506.467,336.8c1.7,1.613,3.49,3.165,5.33,4.61l1.08-1.374c-1.8-1.412-3.548-2.926-5.205-4.5Z" transform="translate(-483.431 -283.104)" fill="#12263f"/>
        <path id="Trazado_801307-4" data-name="Trazado 801307" d="M471.833,293.58c1.174,2.021,2.461,4.013,3.824,5.919l1.422-1.018c-1.332-1.861-2.588-3.805-3.734-5.779Z" transform="translate(-461.858 -256.425)" fill="#12263f"/>
        <path id="Trazado_801308-4" data-name="Trazado 801308" d="M452.667,242.113l-1.7.415c.557,2.278,1.229,4.553,2,6.759l1.651-.575c-.75-2.154-1.406-4.374-1.949-6.6" transform="translate(-448.861 -224.912)" fill="#12263f"/>
        <path id="Trazado_801309-4" data-name="Trazado 801309" d="M487.59,316.4c1.448,1.833,3,3.623,4.624,5.318l1.264-1.209c-1.583-1.655-3.1-3.4-4.515-5.191Z" transform="translate(-471.673 -270.513)" fill="#12263f"/>
        <path id="Trazado_801310-4" data-name="Trazado 801310" d="M459.538,268.788c.873,2.168,1.862,4.322,2.943,6.4l1.552-.8c-1.054-2.033-2.021-4.136-2.872-6.251Z" transform="translate(-454.199 -241.122)" fill="#12263f"/>
        <path id="Trazado_801311-4" data-name="Trazado 801311" d="M660.289,385.874l.166,1.741c2.334-.224,4.68-.56,6.975-1L667.1,384.9c-2.239.432-4.53.76-6.81.977" transform="translate(-579.247 -313.853)" fill="#12263f"/>
        <path id="Trazado_801312-4" data-name="Trazado 801312" d="M812.442,274.085l1.554.8c1.074-2.079,2.061-4.237,2.931-6.41l-1.623-.65c-.85,2.122-1.813,4.228-2.862,6.258" transform="translate(-674.024 -240.93)" fill="#12263f"/>
        <path id="Trazado_801313-4" data-name="Trazado 801313" d="M798.179,298.224l1.424,1.016c1.361-1.91,2.645-3.9,3.815-5.926l-1.513-.876c-1.143,1.975-2.4,3.921-3.726,5.786" transform="translate(-665.139 -256.26)" fill="#12263f"/>
        <path id="Trazado_801314-4" data-name="Trazado 801314" d="M830.294,221.582l1.718.33c.439-2.295.774-4.641.994-6.976l-1.74-.164c-.216,2.279-.543,4.57-.972,6.81" transform="translate(-685.144 -207.881)" fill="#12263f"/>
        <path id="Trazado_801315-4" data-name="Trazado 801315" d="M823.229,248.353l1.653.572c.765-2.209,1.432-4.485,1.983-6.764l-1.7-.411c-.538,2.225-1.19,4.447-1.937,6.6" transform="translate(-680.743 -224.685)" fill="#12263f"/>
        <path id="Trazado_801316-4" data-name="Trazado 801316" d="M780.744,320.29l1.265,1.207c1.618-1.7,3.171-3.489,4.617-5.326l-1.374-1.081c-1.412,1.793-2.929,3.542-4.508,5.2" transform="translate(-654.279 -270.37)" fill="#12263f"/>
        <path id="Trazado_801317-4" data-name="Trazado 801317" d="M737.876,356.489l.876,1.513c2.027-1.173,4.019-2.458,5.924-3.817l-1.016-1.422c-1.859,1.327-3.806,2.581-5.784,3.727" transform="translate(-627.577 -293.836)" fill="#12263f"/>
        <path id="Trazado_801318-4" data-name="Trazado 801318" d="M713.292,369.891l.652,1.622c2.173-.873,4.329-1.86,6.405-2.934l-.8-1.554c-2.028,1.049-4.133,2.013-6.256,2.866" transform="translate(-612.263 -302.72)" fill="#12263f"/>
        <path id="Trazado_801319-4" data-name="Trazado 801319" d="M687.266,379.746l.411,1.7c2.269-.55,4.544-1.219,6.763-1.989l-.574-1.651c-2.166.751-4.386,1.4-6.6,1.939" transform="translate(-596.052 -309.436)" fill="#12263f"/>
        <path id="Trazado_801320-4" data-name="Trazado 801320" d="M760.51,339.841l1.082,1.373c1.838-1.448,3.629-3,5.323-4.617l-1.207-1.265c-1.654,1.578-3.4,3.1-5.2,4.51" transform="translate(-641.676 -282.978)" fill="#12263f"/>
        <path id="Trazado_801321-4" data-name="Trazado 801321" d="M447.129,196.5h-1.748q0,1.778.083,3.538l1.747-.082q-.081-1.717-.081-3.456" transform="translate(-445.381 -196.499)" fill="#12263f"/>
        <path id="Trazado_801322-4" data-name="Trazado 801322" d="M635.3,392.591h1.748V389.95c.91-.01,1.82-.023,2.721-.067l-.084-1.745q-1.7.08-3.414.082c-1.169.012-2.319-.024-3.467-.077l-.082,1.745c.854.041,1.715.048,2.577.058Z" transform="translate(-562.076 -315.871)" fill="#12263f"/>
        <rect id="Rectángulo_374193-4" data-name="Rectángulo 374193" width="1.748" height="5.761" transform="translate(73.223 88.239)" fill="#12263f"/>
        <rect id="Rectángulo_374194-4" data-name="Rectángulo 374194" width="1.748" height="5.76" transform="translate(73.223 79.599)" fill="#12263f"/>
        <rect id="Rectángulo_374195-4" data-name="Rectángulo 374195" width="1.748" height="3.496" transform="translate(73.223 96.877)" fill="#12263f"/>
      </g>
      <path id="Trazado_801395" data-name="Trazado 801395" d="M160.014,104.062A55.961,55.961,0,1,1,104.053,48.1a55.962,55.962,0,0,1,55.961,55.962" transform="translate(255.044 4195.404)" fill="#f6f6f6"/>
      <g id="Enmascarar_grupo_1064363" data-name="Enmascarar grupo 1064363" transform="translate(310.694 4247.939)" clip-path="url(#clip-path)">
        <path id="Trazado_876989" data-name="Trazado 876989" d="M62.36,10.307h4.959v4.315h-.537a1.68,1.68,0,0,0-1.32,2.72l4.071,5.171a1.671,1.671,0,0,0,1.32.641h0a1.672,1.672,0,0,0,1.321-.641l4.071-5.171a1.68,1.68,0,0,0-1.32-2.72h-.537V10.307h4.958a1.153,1.153,0,0,0,0-2.307H62.36a1.153,1.153,0,0,0,0,2.307Zm10.873,6.621h.4l-2.782,3.533-2.782-3.533h.4a1.153,1.153,0,0,0,1.153-1.153V10.307H72.08v5.468A1.154,1.154,0,0,0,73.233,16.928ZM97.456,33.253H85.131l2.7-3.962a1.147,1.147,0,0,0,.143-.29,2.06,2.06,0,0,0,.443-1.278v-1.4a2.074,2.074,0,0,0-2.072-2.072H55.357a2.074,2.074,0,0,0-2.072,2.072v1.4a2.061,2.061,0,0,0,.471,1.313,1.157,1.157,0,0,0,.131.255l2.7,3.962H44.249A1.153,1.153,0,0,0,43.1,34.406V48.8l-1.477-.656a1.153,1.153,0,0,0-1.284.239L37.8,50.917a1.153,1.153,0,0,0-.238,1.284l.718,1.616a12.45,12.45,0,0,0-1.045,2.521l-1.649.635a1.153,1.153,0,0,0-.739,1.076V61.64a1.153,1.153,0,0,0,.739,1.076l1.648.634a12.451,12.451,0,0,0,1.045,2.522l-.717,1.615a1.153,1.153,0,0,0,.238,1.284l2.539,2.539a1.153,1.153,0,0,0,1.284.239l1.477-.656v7.46a1.153,1.153,0,0,0,1.153,1.153H97.456a1.153,1.153,0,0,0,1.153-1.153V34.406a1.153,1.153,0,0,0-1.153-1.153ZM74.545,54.941V57.5l-7.25-3.92V45.21a1.152,1.152,0,0,0-.2-.65L57.023,29.794H84.7L74.627,44.56a1.153,1.153,0,0,0-.2.664Zm11.568-28.38v.926H55.592v-.926ZM41.406,69.12,39.987,67.7l.635-1.43A1.153,1.153,0,0,0,40.55,65.2a10.158,10.158,0,0,1-1.235-2.979,1.153,1.153,0,0,0-.708-.809l-1.459-.562V58.841l1.459-.562a1.153,1.153,0,0,0,.708-.809,10.158,10.158,0,0,1,1.234-2.978,1.153,1.153,0,0,0,.072-1.073l-.635-1.431,1.419-1.419,1.431.635a1.154,1.154,0,0,0,1.073-.072A10.151,10.151,0,0,1,46.888,49.9a1.153,1.153,0,0,0,.809-.708l.562-1.46h2.007l.562,1.46a1.153,1.153,0,0,0,.809.708,10.157,10.157,0,0,1,2.978,1.235,1.154,1.154,0,0,0,1.073.072l1.431-.635,1.419,1.419-.635,1.43a1.154,1.154,0,0,0,.072,1.073,10.146,10.146,0,0,1,1.235,2.978,1.153,1.153,0,0,0,.708.809l1.459.562v2.007l-1.46.562a1.153,1.153,0,0,0-.708.809A10.155,10.155,0,0,1,57.974,65.2a1.154,1.154,0,0,0-.072,1.073l.635,1.431-1.419,1.419-1.43-.635a1.153,1.153,0,0,0-1.073.072,10.15,10.15,0,0,1-2.978,1.235,1.153,1.153,0,0,0-.809.708l-.562,1.459H48.259L47.7,70.5a1.153,1.153,0,0,0-.809-.708,10.156,10.156,0,0,1-2.978-1.234,1.153,1.153,0,0,0-1.073-.072ZM96.3,77.2H45.4V71.768c.117.038.235.075.354.109l.635,1.649a1.153,1.153,0,0,0,1.076.739h3.591a1.153,1.153,0,0,0,1.076-.739l.634-1.648a12.448,12.448,0,0,0,2.522-1.045l1.615.717a1.153,1.153,0,0,0,1.284-.238l2.539-2.539a1.153,1.153,0,0,0,.238-1.284l-.718-1.616a12.454,12.454,0,0,0,1.045-2.521l1.649-.635a1.153,1.153,0,0,0,.739-1.076V58.049a1.153,1.153,0,0,0-.739-1.076L61.3,56.338a12.442,12.442,0,0,0-1.046-2.522l.718-1.615a1.153,1.153,0,0,0-.239-1.284l-2.539-2.539a1.153,1.153,0,0,0-1.284-.239l-1.616.718a12.447,12.447,0,0,0-2.521-1.045l-.635-1.649a1.153,1.153,0,0,0-1.076-.739H47.467a1.153,1.153,0,0,0-1.076.739l-.635,1.649c-.119.034-.236.071-.353.109V35.559H58.163l6.824,10.006v8.7a1.153,1.153,0,0,0,.6,1.014l9.557,5.167a1.153,1.153,0,0,0,1.7-1.014V54.926l-.114-9.367,6.82-10H96.3ZM93.181,48.987a1.153,1.153,0,1,1,0,2.307H79.041a1.153,1.153,0,1,1,0-2.307Zm1.153,5.488a1.153,1.153,0,0,1-1.153,1.153H79.041a1.153,1.153,0,1,1,0-2.307h14.14A1.153,1.153,0,0,1,94.335,54.475Zm0,4.334a1.153,1.153,0,0,1-1.153,1.153H79.041a1.153,1.153,0,1,1,0-2.307h14.14A1.153,1.153,0,0,1,94.335,58.809Zm0,4.334A1.153,1.153,0,0,1,93.181,64.3H66.076a1.153,1.153,0,1,1,0-2.307H93.181A1.153,1.153,0,0,1,94.335,63.143Zm0,4.334a1.153,1.153,0,0,1-1.153,1.153H64.82a1.153,1.153,0,0,1,0-2.307H93.181A1.153,1.153,0,0,1,94.335,67.478Zm0,4.334a1.153,1.153,0,0,1-1.153,1.153H61.816a1.153,1.153,0,0,1,0-2.307H93.181A1.153,1.153,0,0,1,94.335,71.812ZM49.256,67.289a7.418,7.418,0,1,0-7.418-7.418A7.427,7.427,0,0,0,49.256,67.289Zm0-12.53a5.112,5.112,0,1,1-5.112,5.112A5.118,5.118,0,0,1,49.256,54.759Z" transform="translate(-21.515 -0.239)" fill="#12263f"/>
      </g>
      <path id="Trazado_801396" data-name="Trazado 801396" d="M605.4,104.062A55.961,55.961,0,1,1,549.435,48.1,55.961,55.961,0,0,1,605.4,104.062" transform="translate(-22.386 4195.404)" fill="#f6f6f6"/>
      <g id="Enmascarar_grupo_1064364" data-name="Enmascarar grupo 1064364" transform="translate(471.087 4243.882)" clip-path="url(#clip-path-2)">
        <g id="Grupo_1101597" data-name="Grupo 1101597" transform="translate(28.597 23.447)">
          <g id="Grupo_1101596" data-name="Grupo 1101596" transform="translate(0 0)">
            <path id="Trazado_876990" data-name="Trazado 876990" d="M67.4,71.434l-8.576-8.576a1.351,1.351,0,0,0-1.91,0l-.215.215-2.905-2.905a12.96,12.96,0,0,0-7.7-17.965V38.019a1.351,1.351,0,1,0-2.7,0v3.61a12.977,12.977,0,1,0,0,25.826v5.666a1.474,1.474,0,0,1-1.472,1.472H4.174A1.474,1.474,0,0,1,2.7,73.122V21.34a1.474,1.474,0,0,1,1.472-1.472h37.74a1.474,1.474,0,0,1,1.472,1.472v4.787a1.351,1.351,0,1,0,2.7,0V21.34a4.178,4.178,0,0,0-4.174-4.174H4.174A4.178,4.178,0,0,0,0,21.34V73.122A4.178,4.178,0,0,0,4.173,77.3h37.74a4.178,4.178,0,0,0,4.174-4.174V66.883a12.886,12.886,0,0,0,1.531-.6l2.932,2.932-.242.242a1.368,1.368,0,0,0,0,1.91l8.576,8.576A6.018,6.018,0,0,0,67.4,71.434ZM50.7,60.166a10.273,10.273,0,1,1-1.333-12.888A10.342,10.342,0,0,1,50.7,60.166Zm-.7,4.672a13.149,13.149,0,0,0,2.334-2.313l2.457,2.457L52.46,67.306Zm15.492,13.2a3.348,3.348,0,0,1-4.69,0l-7.621-7.621,4.69-4.69,7.621,7.621A3.32,3.32,0,0,1,65.485,78.034Z" transform="translate(0 -17.166)" fill="#12263f"/>
            <path id="Trazado_876991" data-name="Trazado 876991" d="M64.117,89.962a1.351,1.351,0,0,0-1.351-1.351H55.191a1.351,1.351,0,0,0-1.351,1.351v7.576a1.351,1.351,0,0,0,1.351,1.351h7.576a1.351,1.351,0,0,0,1.351-1.351Zm-2.7,6.225H56.541V91.312h4.875Z" transform="translate(-46.568 -78.961)" fill="#12263f"/>
            <path id="Trazado_876992" data-name="Trazado 876992" d="M64.117,203.052a1.351,1.351,0,0,0-1.351-1.351H55.191a1.351,1.351,0,0,0-1.351,1.351v7.576a1.351,1.351,0,0,0,1.351,1.351h7.576a1.351,1.351,0,0,0,1.351-1.351Zm-2.7,6.225H56.541V204.4h4.875Z" transform="translate(-46.568 -176.775)" fill="#12263f"/>
            <path id="Trazado_876993" data-name="Trazado 876993" d="M62.767,314.79H55.191a1.351,1.351,0,0,0-1.351,1.351v7.576a1.351,1.351,0,0,0,1.351,1.351h7.576a1.351,1.351,0,0,0,1.351-1.351v-7.576A1.351,1.351,0,0,0,62.767,314.79Zm-1.351,7.576H56.541v-4.875h4.875Z" transform="translate(-46.568 -274.589)" fill="#12263f"/>
            <path id="Trazado_876994" data-name="Trazado 876994" d="M182.578,89.962a1.351,1.351,0,0,0-1.351-1.351H167.7a1.351,1.351,0,0,0,0,2.7h13.526A1.351,1.351,0,0,0,182.578,89.962Z" transform="translate(-143.88 -78.961)" fill="#12263f"/>
            <path id="Trazado_876995" data-name="Trazado 876995" d="M178.426,132.607a1.351,1.351,0,0,0-1.351-1.351H167.7a1.351,1.351,0,1,0,0,2.7h9.375A1.351,1.351,0,0,0,178.426,132.607Z" transform="translate(-143.88 -115.845)" fill="#12263f"/>
            <path id="Trazado_876996" data-name="Trazado 876996" d="M174.685,203.447a1.351,1.351,0,0,0-1.351-1.351H167.7a1.351,1.351,0,0,0,0,2.7h5.634A1.351,1.351,0,0,0,174.685,203.447Z" transform="translate(-143.88 -177.117)" fill="#12263f"/>
            <path id="Trazado_876997" data-name="Trazado 876997" d="M169,244.74h-1.3a1.351,1.351,0,0,0,0,2.7H169a1.351,1.351,0,1,0,0-2.7Z" transform="translate(-143.88 -214.001)" fill="#12263f"/>
            <path id="Trazado_876998" data-name="Trazado 876998" d="M167.7,317.492H169a1.351,1.351,0,1,0,0-2.7h-1.3a1.351,1.351,0,1,0,0,2.7Z" transform="translate(-143.88 -274.589)" fill="#12263f"/>
            <path id="Trazado_876999" data-name="Trazado 876999" d="M167.7,360.135h5.634a1.351,1.351,0,1,0,0-2.7H167.7a1.351,1.351,0,1,0,0,2.7Z" transform="translate(-143.88 -311.473)" fill="#12263f"/>
            <path id="Trazado_877000" data-name="Trazado 877000" d="M265.345,266.4a1.351,1.351,0,0,0-1.91,1.91l3.222,3.222a1.351,1.351,0,0,0,1.91,0l6.584-6.584a1.351,1.351,0,1,0-1.91-1.91l-5.629,5.629Z" transform="translate(-227.51 -229.488)" fill="#12263f"/>
            <path id="Trazado_877001" data-name="Trazado 877001" d="M323.814,118.511a1.35,1.35,0,1,0-.731,1.763A1.362,1.362,0,0,0,323.814,118.511Z" transform="translate(-277.831 -104.103)" fill="#12263f"/>
          </g>
        </g>
      </g>
      <path id="Trazado_801397" data-name="Trazado 801397" d="M1050.778,104.062A55.961,55.961,0,1,1,994.817,48.1a55.962,55.962,0,0,1,55.961,55.962" transform="translate(-299.815 4195.404)" fill="#f6f6f6"/>
      <path id="Trazado_801398" data-name="Trazado 801398" d="M1496.16,104.062A55.961,55.961,0,1,1,1440.2,48.1a55.962,55.962,0,0,1,55.961,55.962" transform="translate(-577.245 4195.404)" fill="#f6f6f6"/>
      <path id="Trazado_801399" data-name="Trazado 801399" d="M1941.542,104.062A55.961,55.961,0,1,1,1885.58,48.1a55.962,55.962,0,0,1,55.962,55.962" transform="translate(-854.674 4195.404)" fill="#f6f6f6"/>
      <g id="Enmascarar_grupo_1064366" data-name="Enmascarar grupo 1064366" transform="translate(977.103 4243.495)" clip-path="url(#clip-path-4)">
        <g id="Grupo_1101617" data-name="Grupo 1101617" transform="translate(18.772 21.025)">
          <path id="Trazado_877009" data-name="Trazado 877009" d="M124.08,292.207a1.411,1.411,0,1,0-1.927-.516A1.411,1.411,0,0,0,124.08,292.207Zm0,0" transform="translate(-104.757 -248.722)" fill="#12263f"/>
          <path id="Trazado_877010" data-name="Trazado 877010" d="M13.541,72.424l7.1,12.306a5.643,5.643,0,1,0,9.774-5.643l-4.232-7.332,3.665-2.116a1.411,1.411,0,0,0,.516-1.927l-1.835-3.178,27.022-5.3a4.232,4.232,0,0,0,3.431-6.341L54.3,44.773l3-4.538a1.411,1.411,0,0,0,.045-1.483l-2.822-4.887a1.414,1.414,0,0,0-1.307-.7l-5.428.326-5.205-9.016a4.2,4.2,0,0,0-3.612-2.116h-.054a4.2,4.2,0,0,0-3.563,1.951L16.919,47.784,4.938,54.7a9.875,9.875,0,0,0,8.6,17.723ZM27.977,80.5a2.822,2.822,0,0,1-4.888,2.821L16.036,71.1l4.887-2.822L27.977,80.5Zm-3.2-11.187-1.411-2.444,2.444-1.411L27.22,67.9ZM52.511,36.03l1.95,3.377L52.722,42.04l-3.361-5.821Zm-14.8-10.176a1.41,1.41,0,0,1,2.426.028L56.544,54.3a1.41,1.41,0,0,1-1.187,2.115,5.18,5.18,0,0,0-.774.131L37.226,26.486c.364-.468.411-.514.483-.632Zm-2.361,3.024L51.656,57.125,27.044,61.953,19.56,48.99ZM3.767,66.781a7.049,7.049,0,0,1,2.582-9.636l11-6.349L24.4,63.014l-11,6.349a7.063,7.063,0,0,1-9.636-2.582Zm0,0" transform="translate(0 -19.201)" fill="#12263f"/>
          <path id="Trazado_877011" data-name="Trazado 877011" d="M51.612,310.278a1.411,1.411,0,0,0-1.927-.516l-2.444,1.411a1.413,1.413,0,0,1-1.927-.516,1.411,1.411,0,1,0-2.444,1.411,4.238,4.238,0,0,0,5.781,1.549l2.444-1.411a1.411,1.411,0,0,0,.516-1.927Zm0,0" transform="translate(-36.66 -265.898)" fill="#12263f"/>
          <path id="Trazado_877012" data-name="Trazado 877012" d="M444.861,42.659,437,47.034a1.411,1.411,0,0,0,1.372,2.466l7.861-4.375a1.411,1.411,0,0,0-1.372-2.466Zm0,0" transform="translate(-374.726 -36.488)" fill="#12263f"/>
          <path id="Trazado_877013" data-name="Trazado 877013" d="M447.291,138.13l-5.451-1.46a1.411,1.411,0,1,0-.73,2.725l5.451,1.46a1.411,1.411,0,1,0,.73-2.725Zm0,0" transform="translate(-377.98 -117.346)" fill="#12263f"/>
          <path id="Trazado_877014" data-name="Trazado 877014" d="M385,1.046,383.541,6.5a1.411,1.411,0,0,0,2.726.731l1.461-5.451A1.411,1.411,0,1,0,385,1.046Zm0,0" transform="translate(-329.39 0)" fill="#12263f"/>
        </g>
      </g>
      <text id="_1" data-name="1" transform="translate(358.441 4414.809)" fill="#fff" font-size="15" font-family="Roboto-Bold, Roboto" font-weight="700"><tspan x="-4.303" y="0">1</tspan></text>
      <path id="Trazado_801489" data-name="Trazado 801489" d="M183.644,462.675a13.182,13.182,0,1,0,13.182,13.182,13.182,13.182,0,0,0-13.182-13.182" transform="translate(343.028 3933.798)" fill="#12263f"/>
      <path id="Trazado_801490" data-name="Trazado 801490" d="M183.644,462.675a13.182,13.182,0,1,0,13.182,13.182,13.182,13.182,0,0,0-13.182-13.182" transform="translate(510.789 3933.798)" fill="#12263f"/>
      <path id="Trazado_801491" data-name="Trazado 801491" d="M183.644,462.675a13.182,13.182,0,1,0,13.182,13.182,13.182,13.182,0,0,0-13.182-13.182" transform="translate(679.311 3933.798)" fill="#12263f"/>
      <path id="Trazado_801492" data-name="Trazado 801492" d="M183.644,462.675a13.182,13.182,0,1,0,13.182,13.182,13.182,13.182,0,0,0-13.182-13.182" transform="translate(847.266 3933.798)" fill="#12263f"/>
      <text id="_2" data-name="2" transform="translate(526.396 4414.809)" fill="#fff" font-size="15" font-family="Roboto-Bold, Roboto" font-weight="700"><tspan x="-4.303" y="0">2</tspan></text>
      <text id="_3" data-name="3" transform="translate(692.776 4414.854)" fill="#fff" font-size="15" font-family="Roboto-Bold, Roboto" font-weight="700"><tspan x="-4.303" y="0">3</tspan></text>
      <text id="_4" data-name="4" transform="translate(862.299 4414.854)" fill="#fff" font-size="15" font-family="Roboto-Bold, Roboto" font-weight="700"><tspan x="-4.303" y="0">4</tspan></text>
      <text id="_5" data-name="5" transform="translate(1030.254 4414.854)" fill="#fff" font-size="15" font-family="Roboto-Bold, Roboto" font-weight="700"><tspan x="-4.303" y="0">5</tspan></text>
      <g id="Grupo_1101616" data-name="Grupo 1101616" transform="translate(638.819 4263.575)">
        <g id="Grupo_1101615" data-name="Grupo 1101615" transform="translate(27.352)">
          <g id="Grupo_1101599" data-name="Grupo 1101599" transform="translate(45.112 10.801)">
            <g id="Grupo_1101598" data-name="Grupo 1101598" transform="translate(0)">
              <path id="Trazado_877002" data-name="Trazado 877002" d="M370.973,93.6a1.318,1.318,0,0,1-1.318-1.318V83.274a1.318,1.318,0,0,1,2.636,0v9.012A1.318,1.318,0,0,1,370.973,93.6Z" transform="translate(-369.655 -81.956)" fill="#12263f"/>
            </g>
          </g>
          <g id="Grupo_1101601" data-name="Grupo 1101601" transform="translate(45.106 6.56)">
            <g id="Grupo_1101600" data-name="Grupo 1101600" transform="translate(0)">
              <circle id="Elipse_11509" data-name="Elipse 11509" cx="1.318" cy="1.318" r="1.318" fill="#12263f"/>
            </g>
          </g>
          <g id="Grupo_1101604" data-name="Grupo 1101604">
            <path id="Trazado_877003" data-name="Trazado 877003" d="M87.619,13.845A13.836,13.836,0,0,0,65.369,2.853H32.148a4.8,4.8,0,0,0-4.8,4.8V55.59a4.8,4.8,0,0,0,4.8,4.8H36.33V62.68a4.8,4.8,0,0,0,4.8,4.8H75.584a4.8,4.8,0,0,0,4.8-4.8V44.4a1.318,1.318,0,1,0-2.636,0V62.68a2.163,2.163,0,0,1-2.16,2.161H41.126a2.163,2.163,0,0,1-2.16-2.161V60.387h27.64a4.8,4.8,0,0,0,4.8-4.8v-28.1a13.893,13.893,0,0,0,6.342-.376v5.374a1.318,1.318,0,1,0,2.636,0V26.011a13.858,13.858,0,0,0,7.238-12.166ZM68.767,55.591a2.163,2.163,0,0,1-2.161,2.161H32.148a2.163,2.163,0,0,1-2.16-2.161V7.649a2.163,2.163,0,0,1,2.16-2.16h30.6a13.773,13.773,0,0,0-2.8,7.772H37.5a1.318,1.318,0,0,0-1.318,1.318v5.566A1.318,1.318,0,0,0,37.5,21.462H61.251a1.312,1.312,0,0,0,.8-.268,13.924,13.924,0,0,0,6.718,5.559ZM59.933,15.9v2.93H38.821V15.9Zm13.843,9.158a11.21,11.21,0,1,1,11.207-11.21A11.221,11.221,0,0,1,73.776,25.055Z" transform="translate(-27.352)" fill="#12263f"/>
            <g id="Grupo_1101603" data-name="Grupo 1101603" transform="translate(50.395 37.104)">
              <g id="Grupo_1101602" data-name="Grupo 1101602">
                <path id="Trazado_877004" data-name="Trazado 877004" d="M411.057,284.174a1.318,1.318,0,1,1,1.284-1.019A1.33,1.33,0,0,1,411.057,284.174Z" transform="translate(-409.742 -281.541)" fill="#12263f"/>
              </g>
            </g>
          </g>
          <g id="Grupo_1101614" data-name="Grupo 1101614" transform="translate(8.833 26.046)">
            <g id="Grupo_1101613" data-name="Grupo 1101613">
              <g id="Grupo_1101606" data-name="Grupo 1101606">
                <g id="Grupo_1101605" data-name="Grupo 1101605">
                  <path id="Trazado_877005" data-name="Trazado 877005" d="M119.443,200.269H95.695a1.318,1.318,0,0,1,0-2.636h23.748a1.318,1.318,0,0,1,0,2.636Z" transform="translate(-94.377 -197.633)" fill="#12263f"/>
                </g>
              </g>
              <g id="Grupo_1101608" data-name="Grupo 1101608" transform="translate(0 6.251)">
                <g id="Grupo_1101607" data-name="Grupo 1101607">
                  <path id="Trazado_877006" data-name="Trazado 877006" d="M119.443,247.7H95.695a1.318,1.318,0,1,1,0-2.636h23.748a1.318,1.318,0,1,1,0,2.636Z" transform="translate(-94.377 -245.063)" fill="#12263f"/>
                </g>
              </g>
              <g id="Grupo_1101610" data-name="Grupo 1101610" transform="translate(0 12.502)">
                <g id="Grupo_1101609" data-name="Grupo 1101609">
                  <path id="Trazado_877007" data-name="Trazado 877007" d="M119.443,295.129H95.695a1.318,1.318,0,0,1,0-2.636h23.748a1.318,1.318,0,0,1,0,2.636Z" transform="translate(-94.377 -292.493)" fill="#12263f"/>
                </g>
              </g>
              <g id="Grupo_1101612" data-name="Grupo 1101612" transform="translate(0 18.752)">
                <g id="Grupo_1101611" data-name="Grupo 1101611">
                  <path id="Trazado_877008" data-name="Trazado 877008" d="M119.443,342.559H95.695a1.318,1.318,0,0,1,0-2.636h23.748a1.318,1.318,0,1,1,0,2.636Z" transform="translate(-94.377 -339.923)" fill="#12263f"/>
                </g>
              </g>
            </g>
          </g>
        </g>
      </g>
      <g id="layer1" transform="translate(836.408 4267.406)">
        <path id="path2237" d="M48.877,11.04a1.051,1.051,0,0,0-.306-.727L39.114.856a1.143,1.143,0,0,0-.745-.326H3.672A3.134,3.134,0,0,0,.529,3.695c0,17.855.022,36.775,0,54.642a5.244,5.244,0,0,0,5.253,5.255H45.724a5.243,5.243,0,0,0,5.253-5.251V53.079a1.05,1.05,0,0,0-1.047-1.047H48.877V46.159l5.754,7.177a5.023,5.023,0,0,0,7.168.636,4.9,4.9,0,0,0,.388-7.209l-9.718-9.219a13.666,13.666,0,0,0-2.541-16.4V15.256a1.051,1.051,0,0,0-1.049-1.047ZM21.55,26.805a1.051,1.051,0,1,0,0,2.1h5.424a13.679,13.679,0,0,0-.164,2.1H21.55a1.051,1.051,0,1,0,0,2.1h5.419A13.659,13.659,0,0,0,46.545,43.248l.23.289v8.495H9.986a1.052,1.052,0,0,0-1.049,1.047V58.34a3.153,3.153,0,0,1-6.306,0c.023-18.214-.032-35.74,0-54.646A1.027,1.027,0,0,1,3.686,2.631H37.314v8.427A1.051,1.051,0,0,0,38.369,12.1h8.406v2.1l-2.1-.008a1.063,1.063,0,0,0-1.053,1.063v2.1l-3.16-.01A13.685,13.685,0,0,0,27.472,26.8ZM39.416,4.13,45.289,10H39.416ZM13.142,6.835a1.051,1.051,0,1,0,0,2.1H28.907a1.051,1.051,0,1,0,0-2.1Zm0,4.2a1.051,1.051,0,1,0,0,2.1H32.06a1.051,1.051,0,1,0,0-2.1Zm32.582,5.272h2.1V29.966h-2.1Zm-4.2,3.149h2.1l0,10.506h-2.1Zm-2.1,3.149L36.267,22.6a1.325,1.325,0,0,0-.794.382A9.458,9.458,0,1,0,49.93,31.13c0-2.246,0-4.5,0-6.754a11.554,11.554,0,1,1-10.51-4.882ZM5.782,20.5a1.051,1.051,0,0,0-1.047,1.055v10.5a1.051,1.051,0,0,0,1.047,1.057H17.342A1.051,1.051,0,0,0,18.4,32.058V28.909a1.052,1.052,0,1,0-2.1,0v2.1H6.837V22.6h6.308a1.051,1.051,0,1,0,0-2.1Zm10.909,2.33-4.522,3.623-1.437-1.443A1.052,1.052,0,1,0,9.243,26.5l2.1,2.1a1.051,1.051,0,0,0,1.4.076L18,24.473a1.052,1.052,0,1,0-1.312-1.644ZM21.55,22.6a1.051,1.051,0,1,0,0,2.1h4.2a1.051,1.051,0,1,0,0-2.1Zm15.772,2.112h2.094v5.253H37.322Zm-2.1,1.141v5.167a1.05,1.05,0,0,0,1.047,1.047H47.744A7.353,7.353,0,1,1,35.22,25.855ZM5.782,35.211a1.051,1.051,0,0,0-1.047,1.055v10.5a1.051,1.051,0,0,0,1.047,1.055H17.342A1.051,1.051,0,0,0,18.4,46.771V43.622a1.052,1.052,0,1,0-2.1,0v2.1H6.837v-8.41h6.308a1.051,1.051,0,1,0,0-2.1Zm11.453,2.1a1.049,1.049,0,0,0-.544.228l-4.522,3.623-1.437-1.443a1.053,1.053,0,1,0-1.488,1.49l2.1,2.1a1.051,1.051,0,0,0,1.4.078L18,39.184a1.055,1.055,0,0,0-.768-1.872Zm4.315,0a1.051,1.051,0,1,0,0,2.1h4.2a1.051,1.051,0,1,0,0-2.1ZM60.736,48.292a2.811,2.811,0,0,1-.3,4.089,2.939,2.939,0,0,1-4.167-.357l-7.9-9.864a13.572,13.572,0,0,0,2.94-2.829ZM21.55,41.52a1.051,1.051,0,1,0,0,2.1h6.306a1.051,1.051,0,1,0,0-2.1Zm0,4.2a1.051,1.051,0,1,0,0,2.1H34.162a1.051,1.051,0,1,0,0-2.1Zm-10.506,8.41H48.873V58.34a3.134,3.134,0,0,1-3.149,3.149H9.986A5.184,5.184,0,0,0,11.04,58.34Z" transform="translate(0)" fill="#12263f"/>
      </g>
    </g>
    <path id="Polígono_1" data-name="Polígono 1" d="M12,0,24,20H0Z" transform="translate(555.938 8349.538) rotate(90)" fill="#12263f"/>
    <g id="Polígono_5" data-name="Polígono 5" transform="translate(476.938 8276.538) rotate(180)" fill="#12263f">
      <path d="M 23.11689949035645 19.5 L 0.8830999732017517 19.5 L 12 0.971833348274231 L 23.11689949035645 19.5 Z" stroke="none"/>
      <path d="M 12 1.943649291992188 L 1.766189575195312 19 L 22.23381042480469 19 L 12 1.943649291992188 M 12 0 L 24 20 L 0 20 L 12 0 Z" stroke="none" fill="#707070"/>
    </g>
    <g id="Polígono_6" data-name="Polígono 6" transform="translate(977.938 8276.538) rotate(180)" fill="#12263f">
      <path d="M 23.11689949035645 19.5 L 0.8830999732017517 19.5 L 12 0.971833348274231 L 23.11689949035645 19.5 Z" stroke="none"/>
      <path d="M 12 1.943649291992188 L 1.766189575195312 19 L 22.23381042480469 19 L 12 1.943649291992188 M 12 0 L 24 20 L 0 20 L 12 0 Z" stroke="none" fill="#707070"/>
    </g>
    <path id="Polígono_2" data-name="Polígono 2" d="M12,0,24,20H0Z" transform="translate(724.938 8346.538) rotate(90)" fill="#12263f"/>
    <path id="Polígono_3" data-name="Polígono 3" d="M12,0,24,20H0Z" transform="translate(892.938 8346.538) rotate(90)" fill="#12263f"/>
    <path id="Polígono_4" data-name="Polígono 4" d="M12,0,24,20H0Z" transform="translate(1059.938 8346.538) rotate(90)" fill="#12263f"/>
    <path id="Trazado_875723" data-name="Trazado 875723" d="M4920.041-3465.261v-31.493h500.842v31.493" transform="translate(-4455.063 11721.538)" fill="none" stroke="#12263f" stroke-width="2" stroke-dasharray="7"/>
  </g>
</svg>
