<svg xmlns="http://www.w3.org/2000/svg" xmlns:xlink="http://www.w3.org/1999/xlink" width="112.689" height="112.688" viewBox="0 0 112.689 112.688">
  <defs>
    <filter id="Trazado_873160" x="0" y="0" width="112.689" height="112.688" filterUnits="userSpaceOnUse">
      <feOffset dy="3" input="SourceAlpha"/>
      <feGaussianBlur stdDeviation="3" result="blur"/>
      <feFlood flood-opacity="0.161"/>
      <feComposite operator="in" in2="blur"/>
      <feComposite in="SourceGraphic"/>
    </filter>
  </defs>
  <g id="Grupo_1099024" data-name="Grupo 1099024" transform="translate(9 6)">
    <g transform="matrix(1, 0, 0, 1, -9, -6)" filter="url(#Trazado_873160)">
      <path id="Trazado_873160-2" data-name="Trazado 873160" d="M329.449,142.439A47.345,47.345,0,1,1,282.1,95.1,47.345,47.345,0,0,1,329.449,142.439Z" transform="translate(-225.76 -89.1)" fill="#fff"/>
    </g>
    <g id="Layer_15" data-name="Layer 15" transform="translate(15.188 15.283)">
      <path id="Trazado_877031" data-name="Trazado 877031" d="M44.037,52.964l7.187,7.187a6.312,6.312,0,1,0,8.927-8.927l-7.187-7.188Z" fill="#0d66bf"/>
      <path id="Trazado_877032" data-name="Trazado 877032" d="M60.151,51.224l-7.187-7.188-6.928,6.928,6.188,6.187a6.308,6.308,0,0,0,9.754-1.026c.01-.145.022-.29.022-.437a6.312,6.312,0,0,0-1.849-4.464Z" fill="#0d66bf"/>
      <path id="Trazado_877033" data-name="Trazado 877033" d="M52.964,44.036l-8.928,8.928L41.58,50.508a1.983,1.983,0,0,1,0-2.8l6.12-6.127a1.983,1.983,0,0,1,2.805,0l2.456,2.455Z" fill="#d3d3d3"/>
      <path id="Trazado_877034" data-name="Trazado 877034" d="M47.7,41.581l-5.525,5.524,1.858,1.859,6.928-6.928-.456-.455A1.983,1.983,0,0,0,47.7,41.581Z" fill="#d3d3d3"/>
      <path id="Trazado_877037" data-name="Trazado 877037" d="M22,0A22,22,0,1,1,0,22,22,22,0,0,1,22,0Z" transform="translate(2 2)" fill="#0d66bf"/>
      <circle id="Elipse_11511" data-name="Elipse 11511" cx="18" cy="18" r="18" transform="translate(6 6)" fill="#f2f2f2"/>
      <path id="Trazado_877035" data-name="Trazado 877035" d="M42.142,47.142l-5.287-5.287a22.129,22.129,0,0,0,5-5l5.287,5.287Z" fill="#53bced"/>
      <path id="Trazado_877036" data-name="Trazado 877036" d="M38,27V21H35.607a11.916,11.916,0,0,0-1.278-3.086l1.692-1.692-4.243-4.243-1.692,1.692A11.916,11.916,0,0,0,27,12.393V10H21v2.393a11.916,11.916,0,0,0-3.086,1.278l-1.692-1.692-4.243,4.243,1.692,1.692A11.916,11.916,0,0,0,12.393,21H10v6h2.393a11.916,11.916,0,0,0,1.278,3.086l-1.692,1.692,4.243,4.243,1.692-1.692A11.916,11.916,0,0,0,21,35.607V38h6V35.607a11.916,11.916,0,0,0,3.086-1.278l1.692,1.692,4.243-4.243-1.692-1.692A11.916,11.916,0,0,0,35.607,27Z" fill="#53bced"/>
      <circle id="Elipse_11512" data-name="Elipse 11512" cx="7" cy="7" r="7" transform="translate(17 17)" fill="#f2f2f2"/>
    </g>
  </g>
</svg>
