<svg xmlns="http://www.w3.org/2000/svg" xmlns:xlink="http://www.w3.org/1999/xlink" width="98.594" height="98.596" viewBox="0 0 98.594 98.596">
  <defs>
    <filter id="Trazado_873158" x="0" y="0" width="98.594" height="98.596" filterUnits="userSpaceOnUse">
      <feOffset dy="3" input="SourceAlpha"/>
      <feGaussianBlur stdDeviation="3" result="blur"/>
      <feFlood flood-opacity="0.161"/>
      <feComposite operator="in" in2="blur"/>
      <feComposite in="SourceGraphic"/>
    </filter>
  </defs>
  <g id="Grupo_1099018" data-name="Grupo 1099018" transform="translate(16.271 6)">
    <g transform="matrix(1, 0, 0, 1, -16.27, -6)" filter="url(#Trazado_873158)">
      <path id="Trazado_873158-2" data-name="Trazado 873158" d="M393.683,92.791a40.3,40.3,0,1,1-40.3-40.3A40.3,40.3,0,0,1,393.683,92.791Z" transform="translate(-304.09 -46.49)" fill="#fff"/>
    </g>
    <g id="Grupo_1101630" data-name="Grupo 1101630" transform="translate(4.159 11.431)">
      <g id="Grupo_1101619" data-name="Grupo 1101619" transform="translate(20.436 14.935)">
        <path id="Trazado_877015" data-name="Trazado 877015" d="M335.273,155.926a17.183,17.183,0,0,1-3.406,10.334V178.8l-7.334-6.815A17.206,17.206,0,0,1,317.9,173.3l-3.975-16.971,3.975-17.783A17.4,17.4,0,0,1,335.273,155.926Z" transform="translate(-300.518 -138.549)" fill="#53bced"/>
        <path id="Trazado_877016" data-name="Trazado 877016" d="M206.963,138.549V173.3a17.377,17.377,0,0,1,0-34.754Z" transform="translate(-189.586 -138.549)" fill="#53bced"/>
      </g>
      <g id="Grupo_1101620" data-name="Grupo 1101620">
        <path id="Trazado_877017" data-name="Trazado 877017"/>
      </g>
      <g id="Grupo_1101627" data-name="Grupo 1101627">
        <g id="Grupo_1101621" data-name="Grupo 1101621">
          <path id="Trazado_877018" data-name="Trazado 877018" d="M0,17.377A17.183,17.183,0,0,0,3.406,27.711V40.256l7.334-6.815a17.207,17.207,0,0,0,6.637,1.313l3.975-16.971L17.377,0A17.4,17.4,0,0,0,0,17.377Z" fill="#0d66bf"/>
          <path id="Trazado_877019" data-name="Trazado 877019" d="M161.207,0V34.754a17.377,17.377,0,0,0,0-34.754Z" transform="translate(-143.83)" fill="#0d66bf"/>
        </g>
        <g id="Grupo_1101625" data-name="Grupo 1101625">
          <g id="Grupo_1101622" data-name="Grupo 1101622">
            <path id="Trazado_877020" data-name="Trazado 877020"/>
          </g>
          <g id="Grupo_1101624" data-name="Grupo 1101624" transform="translate(12.649 8.993)">
            <path id="Trazado_877021" data-name="Trazado 877021" d="M162.291,115.94a1.485,1.485,0,0,0,.409-1.11,1.516,1.516,0,0,0-1.461-1.413h-.032v2.988h0A1.481,1.481,0,0,0,162.291,115.94Z" transform="translate(-156.479 -110.185)" fill="none"/>
            <g id="Grupo_1101623" data-name="Grupo 1101623">
              <path id="Trazado_877022" data-name="Trazado 877022" d="M146.208,141.146v4.871h1.617l.809-2.3-.809-2.569Z" transform="translate(-143.097 -134.924)" fill="#fff"/>
              <path id="Trazado_877023" data-name="Trazado 877023" d="M117.388,87.5a4.78,4.78,0,0,0-.045.657h3.234a1.518,1.518,0,0,1,.015-.211,1.493,1.493,0,0,1,1.48-1.283l1.132-1.636-1.132-1.6A4.731,4.731,0,0,0,117.388,87.5Z" transform="translate(-117.343 -83.427)" fill="#fff"/>
              <path id="Trazado_877024" data-name="Trazado 877024" d="M146.2,205.486a1.645,1.645,0,0,0,1.617,1.617l.519-1.617-.519-1.617A1.635,1.635,0,0,0,146.2,205.486Z" transform="translate(-143.085 -190.886)" fill="#fff"/>
            </g>
          </g>
        </g>
        <g id="Grupo_1101626" data-name="Grupo 1101626" transform="translate(17.377 8.992)">
          <path id="Trazado_877025" data-name="Trazado 877025" d="M162.825,92.59a4.743,4.743,0,0,0,1.812-1.186,4.689,4.689,0,0,0,1.293-3.5,4.743,4.743,0,0,0-4.625-4.478h-.1v3.234h.032a1.516,1.516,0,0,1,1.461,1.413,1.5,1.5,0,0,1-1.493,1.576h0v4.871h1.617V92.59Z" transform="translate(-161.208 -83.421)" fill="#fff"/>
          <path id="Trazado_877026" data-name="Trazado 877026" d="M161.207,207.1a1.617,1.617,0,1,0,0-3.234h0V207.1Z" transform="translate(-161.207 -190.885)" fill="#fff"/>
        </g>
      </g>
      <g id="Grupo_1101628" data-name="Grupo 1101628" transform="translate(36.195 25.167)">
        <path id="Trazado_877027" data-name="Trazado 877027" d="M335.782,235.091a1.645,1.645,0,0,0,1.617,1.617l.808-1.617-.808-1.617A1.635,1.635,0,0,0,335.782,235.091Z" transform="translate(-335.78 -233.474)" fill="#0d66bf"/>
        <path id="Trazado_877028" data-name="Trazado 877028" d="M335.792,290.909v8.9h1.617l.808-4.449-.808-4.449Z" transform="translate(-335.791 -284.718)" fill="#0d66bf"/>
      </g>
      <g id="Grupo_1101629" data-name="Grupo 1101629" transform="translate(37.813 25.167)">
        <path id="Trazado_877029" data-name="Trazado 877029" d="M352.41,235.091a1.645,1.645,0,0,0-1.617-1.617v3.234A1.635,1.635,0,0,0,352.41,235.091Z" transform="translate(-350.793 -233.474)" fill="#0d66bf"/>
        <path id="Trazado_877030" data-name="Trazado 877030" d="M350.792,290.909h1.617v8.9h-1.617Z" transform="translate(-350.792 -284.718)" fill="#0d66bf"/>
      </g>
    </g>
  </g>
</svg>
